<svg xmlns="http://www.w3.org/2000/svg" xmlns:xlink="http://www.w3.org/1999/xlink" width="960" height="768" viewBox="0 0 720 576"><defs><style>*{stroke-linejoin:round;stroke-linecap:butt}</style></defs><g id="figure_1"><path id="patch_1" d="M0 576h720V0H0z" style="fill:#fff"/><g id="axes_1"><path id="patch_2" d="M90 512.64h558V69.12H90z" style="fill:#fff"/><path id="patch_3" d="M115.364 512.64h19.51V287.644h-19.51z" clip-path="url(#p625723484e)" style="fill:#1f77b4"/><path id="patch_4" d="M193.406 512.64h19.51V283.343h-19.51z" clip-path="url(#p625723484e)" style="fill:#1f77b4"/><path id="patch_5" d="M271.448 512.64h19.51V181.282h-19.51z" clip-path="url(#p625723484e)" style="fill:#1f77b4"/><path id="patch_6" d="M349.49 512.64H369V90.24h-19.51z" clip-path="url(#p625723484e)" style="fill:#1f77b4"/><path id="patch_7" d="M427.531 512.64h19.511V210.277h-19.51z" clip-path="url(#p625723484e)" style="fill:#1f77b4"/><path id="patch_8" d="M505.573 512.64h19.51V403.09h-19.51z" clip-path="url(#p625723484e)" style="fill:#1f77b4"/><path id="patch_9" d="M583.615 512.64h19.51V355.007h-19.51z" clip-path="url(#p625723484e)" style="fill:#1f77b4"/><path id="patch_10" d="M134.874 512.64h19.51V361.87h-19.51z" clip-path="url(#p625723484e)" style="fill:#ff7f0e"/><path id="patch_11" d="M212.916 512.64h19.51V364.672h-19.51z" clip-path="url(#p625723484e)" style="fill:#ff7f0e"/><path id="patch_12" d="M290.958 512.64h19.51V357.617h-19.51z" clip-path="url(#p625723484e)" style="fill:#ff7f0e"/><path id="patch_13" d="M369 512.64h19.51V197.906H369z" clip-path="url(#p625723484e)" style="fill:#ff7f0e"/><path id="patch_14" d="M447.042 512.64h19.51V214.143h-19.51z" clip-path="url(#p625723484e)" style="fill:#ff7f0e"/><path id="patch_15" d="M525.084 512.64h19.51V311.854h-19.51z" clip-path="url(#p625723484e)" style="fill:#ff7f0e"/><path id="patch_16" d="M603.126 512.64h19.51V334.856h-19.51z" clip-path="url(#p625723484e)" style="fill:#ff7f0e"/><g id="matplotlib.axis_1"><g id="xtick_1"><g id="line2d_1"><defs><path id="m4a5ad0e230" d="M0 0v3.5" style="stroke:#000;stroke-width:.8"/></defs><use xlink:href="#m4a5ad0e230" x="134.874" y="512.64" style="stroke:#000;stroke-width:.8"/></g><g id="text_1" transform="matrix(.1 0 0 -.1 114.835 527.238)"><defs><path id="DejaVuSans-46" d="M628 4666h2681v-532H1259V2759h1850v-531H1259V0H628z" transform="scale(.01563)"/><path id="DejaVuSans-6d" d="M3328 2828q216 388 516 572t706 184q547 0 844-383 297-382 297-1088V0h-578v2094q0 503-179 746-178 244-543 244-447 0-707-297-259-296-259-809V0h-578v2094q0 506-178 748t-550 242q-441 0-701-298-259-298-259-808V0H581v3500h578v-544q197 322 472 475t653 153q382 0 649-194 267-193 395-562" transform="scale(.01563)"/><path id="DejaVuSans-63" d="M3122 3366v-538q-244 135-489 202t-495 67q-560 0-870-355-309-354-309-995t309-996q310-354 870-354 250 0 495 67t489 202V134Q2881 22 2623-34q-257-57-548-57-791 0-1257 497-465 497-465 1341 0 856 470 1346 471 491 1290 491 265 0 518-55 253-54 491-163" transform="scale(.01563)"/><path id="DejaVuSans-32" d="M1228 531h2203V0H469v531q359 372 979 998 621 627 780 809 303 340 423 576 121 236 121 464 0 372-261 606-261 235-680 235-297 0-627-103-329-103-704-313v638q381 153 712 231 332 78 607 78 725 0 1156-363 431-362 431-968 0-288-108-546-107-257-392-607-78-91-497-524-418-433-1181-1211" transform="scale(.01563)"/><path id="DejaVuSans-35" d="M691 4666h2478v-532H1269V2991q137 47 274 70 138 23 276 23 781 0 1237-428 457-428 457-1159 0-753-469-1171Q2575-91 1722-91q-294 0-599 50Q819 9 494 109v635q281-153 581-228t634-75q541 0 856 284 316 284 316 772 0 487-316 771-315 285-856 285-253 0-505-56-251-56-513-175z" transform="scale(.01563)"/><path id="DejaVuSans-36" d="M2113 2584q-425 0-674-291-248-290-248-796 0-503 248-796 249-292 674-292t673 292q248 293 248 796 0 506-248 796-248 291-673 291m1253 1979v-575q-238 112-480 171-242 60-480 60-625 0-955-422-329-422-376-1275 184 272 462 417 279 145 613 145 703 0 1111-427 408-426 408-1160 0-719-425-1154Q2819-91 2113-91q-810 0-1238 620-428 621-428 1799 0 1106 525 1764t1409 658q238 0 480-47t505-140" transform="scale(.01563)"/></defs><use xlink:href="#DejaVuSans-46"/><use xlink:href="#DejaVuSans-6d" x="57.52"/><use xlink:href="#DejaVuSans-63" x="154.932"/><use xlink:href="#DejaVuSans-32" x="209.912"/><use xlink:href="#DejaVuSans-35" x="273.535"/><use xlink:href="#DejaVuSans-36" x="337.158"/></g></g><g id="xtick_2"><use xlink:href="#m4a5ad0e230" id="line2d_2" x="212.916" y="512.64" style="stroke:#000;stroke-width:.8"/><g id="text_2" transform="matrix(.1 0 0 -.1 187.607 527.238)"><defs><path id="DejaVuSans-4c" d="M628 4666h631V531h2272V0H628z" transform="scale(.01563)"/><path id="DejaVuSans-65" d="M3597 1894v-281H953q38-594 358-905t892-311q331 0 642 81t618 244V178Q3153 47 2828-22t-659-69q-838 0-1327 487-489 488-489 1320 0 859 464 1363 464 505 1252 505 706 0 1117-455 411-454 411-1235m-575 169q-6 471-264 752-258 282-683 282-481 0-770-272t-333-766z" transform="scale(.01563)"/><path id="DejaVuSans-68" d="M3513 2113V0h-575v2094q0 497-194 743-194 247-581 247-466 0-735-297-269-296-269-809V0H581v4863h578V2956q207 316 486 472 280 156 646 156 603 0 912-373 310-373 310-1098" transform="scale(.01563)"/><path id="DejaVuSans-72" d="M2631 2963q-97 56-211 82-114 27-251 27-488 0-749-317t-261-911V0H581v3500h578v-544q182 319 472 473 291 155 707 155 59 0 131-8 72-7 159-23z" transform="scale(.01563)"/><path id="DejaVuSans-34" d="M2419 4116 825 1625h1594zm-166 550h794V1625h666v-525h-666V0h-628v1100H313v609z" transform="scale(.01563)"/></defs><use xlink:href="#DejaVuSans-4c"/><use xlink:href="#DejaVuSans-65" x="53.963"/><use xlink:href="#DejaVuSans-68" x="115.486"/><use xlink:href="#DejaVuSans-6d" x="178.865"/><use xlink:href="#DejaVuSans-65" x="276.277"/><use xlink:href="#DejaVuSans-72" x="337.801"/><use xlink:href="#DejaVuSans-36" x="378.914"/><use xlink:href="#DejaVuSans-34" x="442.537"/></g></g><g id="xtick_3"><use xlink:href="#m4a5ad0e230" id="line2d_3" x="290.958" y="512.64" style="stroke:#000;stroke-width:.8"/><g id="text_3" transform="matrix(.1 0 0 -.1 254.385 527.238)"><defs><path id="DejaVuSans-58" d="M403 4666h678l1160-1735 1165 1735h678L2584 2425 4184 0h-678L2194 1984 872 0H191l1665 2491z" transform="scale(.01563)"/><path id="DejaVuSans-6f" d="M1959 3097q-462 0-731-361t-269-989 267-989q268-361 733-361 460 0 728 362 269 363 269 988 0 622-269 986-268 364-728 364m0 487q750 0 1178-488 429-487 429-1349 0-859-429-1349Q2709-91 1959-91q-753 0-1180 489-426 490-426 1349 0 862 426 1349 427 488 1180 488" transform="scale(.01563)"/><path id="DejaVuSans-73" d="M2834 3397v-544q-243 125-506 187-262 63-544 63-428 0-642-131t-214-394q0-200 153-314t616-217l197-44q612-131 870-370t258-667q0-488-386-773Q2250-91 1575-91q-281 0-586 55T347 128v594q319-166 628-249 309-82 613-82 406 0 624 139 219 139 219 392 0 234-158 359-157 125-692 241l-200 47q-534 112-772 345-237 233-237 639 0 494 350 762 350 269 994 269 318 0 599-47 282-46 519-140" transform="scale(.01563)"/><path id="DejaVuSans-69" d="M603 3500h575V0H603zm0 1363h575v-729H603z" transform="scale(.01563)"/><path id="DejaVuSans-2b" d="M2944 4013V2272h1740v-531H2944V0h-525v1741H678v531h1741v1741z" transform="scale(.01563)"/></defs><use xlink:href="#DejaVuSans-58"/><use xlink:href="#DejaVuSans-6f" x="68.506"/><use xlink:href="#DejaVuSans-73" x="129.688"/><use xlink:href="#DejaVuSans-68" x="181.787"/><use xlink:href="#DejaVuSans-69" x="245.166"/><use xlink:href="#DejaVuSans-72" x="272.949"/><use xlink:href="#DejaVuSans-6f" x="311.813"/><use xlink:href="#DejaVuSans-32" x="372.994"/><use xlink:href="#DejaVuSans-35" x="436.617"/><use xlink:href="#DejaVuSans-36" x="500.24"/><use xlink:href="#DejaVuSans-2b" x="563.863"/><use xlink:href="#DejaVuSans-2b" x="647.652"/></g></g><g id="xtick_4"><use xlink:href="#m4a5ad0e230" id="line2d_4" x="369" y="512.64" style="stroke:#000;stroke-width:.8"/><g id="text_4" transform="matrix(.1 0 0 -.1 345.298 527.238)"><defs><path id="DejaVuSans-50" d="M1259 4147V2394h794q441 0 681 228 241 228 241 650 0 419-241 647-240 228-681 228zm-631 519h1425q785 0 1186-355 402-355 402-1039 0-691-402-1044-401-353-1186-353h-794V0H628z" transform="scale(.01563)"/><path id="DejaVuSans-67" d="M2906 1791q0 625-258 968-257 344-723 344-462 0-720-344-258-343-258-968 0-622 258-966t720-344q466 0 723 344 258 344 258 966m575-1357q0-893-397-1329-396-436-1215-436-303 0-572 45t-522 139v559q253-137 500-202 247-66 503-66 566 0 847 295t281 892v285q-178-310-456-463T1784 0Q1141 0 747 490 353 981 353 1791q0 812 394 1302 394 491 1037 491 388 0 666-153t456-462v531h575z" transform="scale(.01563)"/><path id="DejaVuSans-44" d="M1259 4147V519h763q966 0 1414 437 448 438 448 1382 0 937-448 1373t-1414 436zm-631 519h1297q1356 0 1990-564 635-564 635-1764 0-1207-638-1773Q3275 0 1925 0H628z" transform="scale(.01563)"/><path id="DejaVuSans-53" d="M3425 4513v-616q-359 172-678 256-319 85-616 85-515 0-795-200t-280-569q0-310 186-468 186-157 705-254l381-78q706-135 1042-474t336-907q0-679-455-1029Q2797-91 1919-91q-331 0-705 75-373 75-773 222v650q384-215 753-325 369-109 725-109 540 0 834 212 294 213 294 607 0 343-211 537t-692 291l-385 75q-706 140-1022 440-315 300-315 835 0 619 436 975t1201 356q329 0 669-60 341-59 697-177" transform="scale(.01563)"/><path id="DejaVuSans-4d" d="M628 4666h941l1190-3175 1197 3175h941V0h-616v4097L3078 897h-634L1241 4097V0H628z" transform="scale(.01563)"/></defs><use xlink:href="#DejaVuSans-50"/><use xlink:href="#DejaVuSans-63" x="60.303"/><use xlink:href="#DejaVuSans-67" x="115.283"/><use xlink:href="#DejaVuSans-44" x="178.76"/><use xlink:href="#DejaVuSans-58" x="255.762"/><use xlink:href="#DejaVuSans-53" x="324.268"/><use xlink:href="#DejaVuSans-4d" x="387.744"/></g></g><g id="xtick_5"><use xlink:href="#m4a5ad0e230" id="line2d_5" x="447.042" y="512.64" style="stroke:#000;stroke-width:.8"/><g id="text_5" transform="matrix(.1 0 0 -.1 425.6 527.238)"><defs><path id="DejaVuSans-33" d="M2597 2516q453-97 707-404 255-306 255-756 0-690-475-1069Q2609-91 1734-91q-293 0-604 58T488 141v609q262-153 574-231 313-78 654-78 593 0 904 234t311 681q0 413-289 645-289 233-804 233h-544v519h569q465 0 712 186t247 536q0 359-255 551-254 193-729 193-260 0-557-57-297-56-653-174v562q360 100 674 150t592 50q719 0 1137-327 419-326 419-882 0-388-222-655t-631-370" transform="scale(.01563)"/><path id="DejaVuSans-78" d="M3513 3500 2247 1797 3578 0h-678L1881 1375 863 0H184l1360 1831L300 3500h678l928-1247 928 1247z" transform="scale(.01563)"/></defs><use xlink:href="#DejaVuSans-50"/><use xlink:href="#DejaVuSans-63" x="60.303"/><use xlink:href="#DejaVuSans-67" x="115.283"/><use xlink:href="#DejaVuSans-33" x="178.76"/><use xlink:href="#DejaVuSans-32" x="242.383"/><use xlink:href="#DejaVuSans-78" x="306.006"/><use xlink:href="#DejaVuSans-32" x="365.186"/></g></g><g id="xtick_6"><use xlink:href="#m4a5ad0e230" id="line2d_6" x="525.084" y="512.64" style="stroke:#000;stroke-width:.8"/><g id="text_6" transform="matrix(.1 0 0 -.1 498.416 527.238)"><defs><path id="DejaVuSans-70" d="M1159 525v-1856H581v4831h578v-531q182 312 458 463 277 152 661 152 638 0 1036-506 399-506 399-1331T3314 415Q2916-91 2278-91q-384 0-661 152-276 152-458 464m1957 1222q0 634-261 995t-717 361q-457 0-718-361t-261-995 261-995 718-361q456 0 717 361t261 995" transform="scale(.01563)"/><path id="DejaVuSans-6c" d="M603 4863h575V0H603z" transform="scale(.01563)"/><path id="DejaVuSans-74" d="M1172 4494v-994h1184v-447H1172V1153q0-428 117-550t477-122h590V0h-590q-666 0-919 248-253 249-253 905v1900H172v447h422v994z" transform="scale(.01563)"/></defs><use xlink:href="#DejaVuSans-53"/><use xlink:href="#DejaVuSans-70" x="63.477"/><use xlink:href="#DejaVuSans-6c" x="126.953"/><use xlink:href="#DejaVuSans-69" x="154.736"/><use xlink:href="#DejaVuSans-74" x="182.52"/><use xlink:href="#DejaVuSans-6d" x="221.729"/><use xlink:href="#DejaVuSans-69" x="319.141"/><use xlink:href="#DejaVuSans-78" x="346.924"/><use xlink:href="#DejaVuSans-36" x="406.104"/><use xlink:href="#DejaVuSans-34" x="469.727"/></g></g><g id="xtick_7"><use xlink:href="#m4a5ad0e230" id="line2d_7" x="603.126" y="512.64" style="stroke:#000;stroke-width:.8"/><g id="text_7" transform="matrix(.1 0 0 -.1 583.848 527.238)"><defs><path id="DejaVuSans-57" d="M213 4666h637l981-3944 978 3944h710l981-3944 978 3944h641L4947 0h-794l-984 4050L2175 0h-794z" transform="scale(.01563)"/><path id="DejaVuSans-79" d="M2059-325q-243-625-475-815-231-191-618-191H506v481h338q237 0 368 113 132 112 291 531l103 262L191 3500h609L1894 763l1094 2737h609z" transform="scale(.01563)"/><path id="DejaVuSans-61" d="M2194 1759q-697 0-966-159t-269-544q0-306 202-486 202-179 548-179 479 0 768 339t289 901v128zm1147 238V0h-575v531q-197-318-491-470T1556-91q-537 0-855 302-317 302-317 808 0 590 395 890 396 300 1180 300h807v57q0 397-261 614t-733 217q-300 0-585-72-284-72-546-216v532q315 122 612 182 297 61 578 61 760 0 1135-394 375-393 375-1193" transform="scale(.01563)"/><path id="DejaVuSans-6e" d="M3513 2113V0h-575v2094q0 497-194 743-194 247-581 247-466 0-735-297-269-296-269-809V0H581v3500h578v-544q207 316 486 472 280 156 646 156 603 0 912-373 310-373 310-1098" transform="scale(.01563)"/><path id="DejaVuSans-64" d="M2906 2969v1894h575V0h-575v525q-181-312-458-464-276-152-664-152-634 0-1033 506-398 507-398 1332t398 1331q399 506 1033 506 388 0 664-152 277-151 458-463M947 1747q0-634 261-995t717-361 718 361q263 361 263 995t-263 995q-262 361-718 361t-717-361-261-995" transform="scale(.01563)"/></defs><use xlink:href="#DejaVuSans-57"/><use xlink:href="#DejaVuSans-79" x="97.127"/><use xlink:href="#DejaVuSans-72" x="156.307"/><use xlink:href="#DejaVuSans-61" x="197.42"/><use xlink:href="#DejaVuSans-6e" x="258.699"/><use xlink:href="#DejaVuSans-64" x="322.078"/></g></g></g><g id="matplotlib.axis_2"><g id="ytick_1"><g id="line2d_8"><defs><path id="mba523f03b1" d="M0 0h-3.5" style="stroke:#000;stroke-width:.8"/></defs><use xlink:href="#mba523f03b1" x="90" y="512.64" style="stroke:#000;stroke-width:.8"/></g><g id="text_8" transform="matrix(.1 0 0 -.1 76.638 516.44)"><defs><path id="DejaVuSans-30" d="M2034 4250q-487 0-733-480-245-479-245-1442 0-959 245-1439 246-480 733-480 491 0 736 480 246 480 246 1439 0 963-246 1442-245 480-736 480m0 500q785 0 1199-621 414-620 414-1801 0-1178-414-1799Q2819-91 2034-91q-784 0-1198 620-414 621-414 1799 0 1181 414 1801 414 621 1198 621" transform="scale(.01563)"/></defs><use xlink:href="#DejaVuSans-30"/></g></g><g id="ytick_2"><use xlink:href="#mba523f03b1" id="line2d_9" x="90" y="415.992" style="stroke:#000;stroke-width:.8"/><g id="text_9" transform="matrix(.1 0 0 -.1 57.55 419.791)"><use xlink:href="#DejaVuSans-32"/><use xlink:href="#DejaVuSans-30" x="63.623"/><use xlink:href="#DejaVuSans-30" x="127.246"/><use xlink:href="#DejaVuSans-30" x="190.869"/></g></g><g id="ytick_3"><use xlink:href="#mba523f03b1" id="line2d_10" x="90" y="319.344" style="stroke:#000;stroke-width:.8"/><g id="text_10" transform="matrix(.1 0 0 -.1 57.55 323.143)"><use xlink:href="#DejaVuSans-34"/><use xlink:href="#DejaVuSans-30" x="63.623"/><use xlink:href="#DejaVuSans-30" x="127.246"/><use xlink:href="#DejaVuSans-30" x="190.869"/></g></g><g id="ytick_4"><use xlink:href="#mba523f03b1" id="line2d_11" x="90" y="222.696" style="stroke:#000;stroke-width:.8"/><g id="text_11" transform="matrix(.1 0 0 -.1 57.55 226.495)"><use xlink:href="#DejaVuSans-36"/><use xlink:href="#DejaVuSans-30" x="63.623"/><use xlink:href="#DejaVuSans-30" x="127.246"/><use xlink:href="#DejaVuSans-30" x="190.869"/></g></g><g id="ytick_5"><use xlink:href="#mba523f03b1" id="line2d_12" x="90" y="126.048" style="stroke:#000;stroke-width:.8"/><g id="text_12" transform="matrix(.1 0 0 -.1 57.55 129.847)"><defs><path id="DejaVuSans-38" d="M2034 2216q-450 0-708-241-257-241-257-662 0-422 257-663 258-241 708-241t709 242q260 243 260 662 0 421-258 662-257 241-711 241m-631 268q-406 100-633 378-226 279-226 679 0 559 398 884 399 325 1092 325 697 0 1094-325t397-884q0-400-227-679-226-278-629-378 456-106 710-416 255-309 255-755 0-679-414-1042Q2806-91 2034-91q-771 0-1186 362-414 363-414 1042 0 446 256 755 257 310 713 416m-231 997q0-362 226-565 227-203 636-203 407 0 636 203 230 203 230 565 0 363-230 566-229 203-636 203-409 0-636-203-226-203-226-566" transform="scale(.01563)"/></defs><use xlink:href="#DejaVuSans-38"/><use xlink:href="#DejaVuSans-30" x="63.623"/><use xlink:href="#DejaVuSans-30" x="127.246"/><use xlink:href="#DejaVuSans-30" x="190.869"/></g></g><g id="text_13" transform="matrix(0 -.1 -.1 0 51.47 368.144)"><defs><path id="DejaVuSans-54" d="M-19 4666h3947v-532H2272V0h-634v4134H-19z" transform="scale(.01563)"/><path id="DejaVuSans-2c" d="M750 794h659V256L897-744H494L750 256z" transform="scale(.01563)"/><path id="DejaVuSans-77" d="M269 3500h575l719-2731 715 2731h678l719-2731 716 2731h575L4050 0h-678l-753 2869L1863 0h-679z" transform="scale(.01563)"/><path id="DejaVuSans-62" d="M3116 1747q0 634-261 995t-717 361q-457 0-718-361t-261-995 261-995 718-361q456 0 717 361t261 995M1159 2969q182 312 458 463 277 152 661 152 638 0 1036-506 399-506 399-1331T3314 415Q2916-91 2278-91q-384 0-661 152-276 152-458 464V0H581v4863h578z" transform="scale(.01563)"/></defs><use xlink:href="#DejaVuSans-54"/><use xlink:href="#DejaVuSans-65" x="44.084"/><use xlink:href="#DejaVuSans-73" x="105.607"/><use xlink:href="#DejaVuSans-74" x="157.707"/><use xlink:href="#DejaVuSans-74" x="228.703"/><use xlink:href="#DejaVuSans-69" x="267.912"/><use xlink:href="#DejaVuSans-6d" x="295.695"/><use xlink:href="#DejaVuSans-65" x="393.107"/><use xlink:href="#DejaVuSans-69" x="486.418"/><use xlink:href="#DejaVuSans-6e" x="514.201"/><use xlink:href="#DejaVuSans-6d" x="609.367"/><use xlink:href="#DejaVuSans-73" x="706.779"/><use xlink:href="#DejaVuSans-2c" x="758.879"/><use xlink:href="#DejaVuSans-6c" x="822.453"/><use xlink:href="#DejaVuSans-6f" x="850.236"/><use xlink:href="#DejaVuSans-77" x="911.418"/><use xlink:href="#DejaVuSans-65" x="993.205"/><use xlink:href="#DejaVuSans-72" x="1054.729"/><use xlink:href="#DejaVuSans-69" x="1127.629"/><use xlink:href="#DejaVuSans-73" x="1155.412"/><use xlink:href="#DejaVuSans-62" x="1239.299"/><use xlink:href="#DejaVuSans-65" x="1302.775"/><use xlink:href="#DejaVuSans-74" x="1364.299"/><use xlink:href="#DejaVuSans-74" x="1403.508"/><use xlink:href="#DejaVuSans-65" x="1442.717"/><use xlink:href="#DejaVuSans-72" x="1504.24"/></g></g><path id="patch_17" d="M90 512.64V69.12" style="fill:none;stroke:#000;stroke-width:.8;stroke-linejoin:miter;stroke-linecap:square"/><path id="patch_18" d="M648 512.64V69.12" style="fill:none;stroke:#000;stroke-width:.8;stroke-linejoin:miter;stroke-linecap:square"/><path id="patch_19" d="M90 512.64h558" style="fill:none;stroke:#000;stroke-width:.8;stroke-linejoin:miter;stroke-linecap:square"/><path id="patch_20" d="M90 69.12h558" style="fill:none;stroke:#000;stroke-width:.8;stroke-linejoin:miter;stroke-linecap:square"/><g id="text_14" transform="matrix(.12 0 0 -.12 294.041 63.12)"><defs><path id="DejaVuSans-66" d="M2375 4863v-479h-550q-309 0-430-125-120-125-120-450v-309h947v-447h-947V0H697v3053H147v447h550v244q0 584 272 851 272 268 862 268z" transform="scale(.01563)"/></defs><use xlink:href="#DejaVuSans-50"/><use xlink:href="#DejaVuSans-65" x="56.678"/><use xlink:href="#DejaVuSans-72" x="118.201"/><use xlink:href="#DejaVuSans-66" x="159.314"/><use xlink:href="#DejaVuSans-6f" x="194.52"/><use xlink:href="#DejaVuSans-72" x="255.701"/><use xlink:href="#DejaVuSans-6d" x="295.064"/><use xlink:href="#DejaVuSans-61" x="392.477"/><use xlink:href="#DejaVuSans-6e" x="453.756"/><use xlink:href="#DejaVuSans-63" x="517.135"/><use xlink:href="#DejaVuSans-65" x="572.115"/><use xlink:href="#DejaVuSans-63" x="665.426"/><use xlink:href="#DejaVuSans-6f" x="720.406"/><use xlink:href="#DejaVuSans-6d" x="781.588"/><use xlink:href="#DejaVuSans-70" x="879"/><use xlink:href="#DejaVuSans-61" x="942.477"/><use xlink:href="#DejaVuSans-72" x="1003.756"/><use xlink:href="#DejaVuSans-69" x="1044.869"/><use xlink:href="#DejaVuSans-73" x="1072.652"/><use xlink:href="#DejaVuSans-6f" x="1124.752"/><use xlink:href="#DejaVuSans-6e" x="1185.934"/></g><g id="legend_1"><path id="patch_21" d="M97 91.798h355.648q2 0 2-2V76.12q0-2-2-2H97q-2 0-2 2v13.678q0 2 2 2z" style="fill:#fff;opacity:.8;stroke:#ccc;stroke-linejoin:miter"/><path id="patch_22" d="M99 85.718h20v-7H99z" style="fill:#1f77b4"/><g id="text_15" transform="matrix(.1 0 0 -.1 127 85.718)"><defs><path id="DejaVuSans-43" d="M4122 4306v-665q-319 297-680 443-361 147-767 147-800 0-1225-489t-425-1414q0-922 425-1411t1225-489q406 0 767 147t680 444V359q-331-225-702-338-370-112-782-112-1060 0-1670 648-609 649-609 1771 0 1125 609 1773 610 649 1670 649 418 0 788-111 371-111 696-333" transform="scale(.01563)"/><path id="DejaVuSans-49" d="M628 4666h631V0H628z" transform="scale(.01563)"/></defs><use xlink:href="#DejaVuSans-4d"/><use xlink:href="#DejaVuSans-6f" x="86.279"/><use xlink:href="#DejaVuSans-6e" x="147.461"/><use xlink:href="#DejaVuSans-74" x="210.84"/><use xlink:href="#DejaVuSans-65" x="250.049"/><use xlink:href="#DejaVuSans-43" x="343.359"/><use xlink:href="#DejaVuSans-61" x="413.184"/><use xlink:href="#DejaVuSans-72" x="474.463"/><use xlink:href="#DejaVuSans-6c" x="515.576"/><use xlink:href="#DejaVuSans-6f" x="543.359"/><use xlink:href="#DejaVuSans-50" x="636.328"/><use xlink:href="#DejaVuSans-49" x="696.631"/><use xlink:href="#DejaVuSans-65" x="757.91"/><use xlink:href="#DejaVuSans-73" x="819.434"/><use xlink:href="#DejaVuSans-74" x="871.533"/><use xlink:href="#DejaVuSans-69" x="910.742"/><use xlink:href="#DejaVuSans-6d" x="938.525"/><use xlink:href="#DejaVuSans-61" x="1035.938"/><use xlink:href="#DejaVuSans-74" x="1097.217"/><use xlink:href="#DejaVuSans-69" x="1136.426"/><use xlink:href="#DejaVuSans-6f" x="1164.209"/><use xlink:href="#DejaVuSans-6e" x="1225.391"/></g><path id="patch_23" d="M275.875 85.718h20v-7h-20z" style="fill:#ff7f0e"/><g id="text_16" transform="matrix(.1 0 0 -.1 303.875 85.718)"><defs><path id="DejaVuSans-48" d="M628 4666h631V2753h2294v1913h631V0h-631v2222H1259V0H628z" transform="scale(.01563)"/><path id="DejaVuSans-75" d="M544 1381v2119h575V1403q0-497 193-746 194-248 582-248 465 0 735 297 271 297 271 810v1984h575V0h-575v538q-209-319-486-474-276-155-642-155-603 0-916 375-312 375-312 1097m1447 2203" transform="scale(.01563)"/></defs><use xlink:href="#DejaVuSans-48"/><use xlink:href="#DejaVuSans-61" x="75.195"/><use xlink:href="#DejaVuSans-6d" x="136.475"/><use xlink:href="#DejaVuSans-6d" x="233.887"/><use xlink:href="#DejaVuSans-69" x="331.299"/><use xlink:href="#DejaVuSans-6e" x="359.082"/><use xlink:href="#DejaVuSans-67" x="422.461"/><use xlink:href="#DejaVuSans-57" x="517.725"/><use xlink:href="#DejaVuSans-65" x="610.727"/><use xlink:href="#DejaVuSans-69" x="672.25"/><use xlink:href="#DejaVuSans-67" x="700.033"/><use xlink:href="#DejaVuSans-68" x="763.51"/><use xlink:href="#DejaVuSans-74" x="826.889"/><use xlink:href="#DejaVuSans-64" x="897.885"/><use xlink:href="#DejaVuSans-69" x="961.361"/><use xlink:href="#DejaVuSans-73" x="989.145"/><use xlink:href="#DejaVuSans-74" x="1041.244"/><use xlink:href="#DejaVuSans-72" x="1080.453"/><use xlink:href="#DejaVuSans-69" x="1121.566"/><use xlink:href="#DejaVuSans-62" x="1149.35"/><use xlink:href="#DejaVuSans-75" x="1212.826"/><use xlink:href="#DejaVuSans-74" x="1276.205"/><use xlink:href="#DejaVuSans-69" x="1315.414"/><use xlink:href="#DejaVuSans-6f" x="1343.197"/><use xlink:href="#DejaVuSans-6e" x="1404.379"/></g></g></g></g><defs><clipPath id="p625723484e"><path d="M90 69.12h558v443.52H90z"/></clipPath></defs></svg>
